<?xml version="1.0" standalone="no"?>
<!DOCTYPE svg PUBLIC "-//W3C//DTD SVG 20010904//EN"
 "http://www.w3.org/TR/2001/REC-SVG-20010904/DTD/svg10.dtd">
<svg version="1.0" xmlns="http://www.w3.org/2000/svg"
 width="297.000000pt" height="297.000000pt" viewBox="0 0 297.000000 297.000000"
 preserveAspectRatio="xMidYMid meet">
<metadata>
Created by potrace 1.11, written by Peter Selinger 2001-2013
</metadata>
<g transform="translate(0.000000,297.000000) scale(0.100000,-0.100000)"
fill="#000000" stroke="none">
<path d="M1225 2863 c-143 -57 -269 -108 -280 -113 -11 -5 -150 -61 -310 -125
-159 -63 -299 -119 -310 -124 -11 -5 -86 -35 -168 -67 l-147 -58 2 -890 3
-891 725 -292 c399 -160 733 -292 742 -292 14 -1 305 111 453 174 17 7 68 27
115 45 47 18 89 37 95 42 5 4 15 8 23 8 7 0 32 8 55 19 23 10 197 80 387 156
190 76 347 139 349 141 4 4 4 1774 -1 1779 -2 2 -332 135 -733 295 -402 161
-732 293 -735 295 -3 1 -122 -45 -265 -102z m527 -143 c139 -56 262 -105 273
-110 11 -5 196 -79 410 -164 l390 -156 3 -803 2 -803 -132 -53 c-73 -29 -146
-59 -163 -66 -16 -7 -185 -75 -375 -150 -190 -75 -358 -143 -375 -150 -79 -34
-288 -115 -298 -115 -6 0 -311 120 -678 267 l-668 267 0 797 c1 597 4 800 12
807 9 8 315 131 557 225 8 4 182 74 385 156 204 82 378 150 387 150 10 1 131
-44 270 -99z"/>
<path d="M357 2202 c-1 -4 -2 -59 -2 -122 l0 -115 190 -1 c105 -1 201 -2 215
-3 l26 -1 -1 -587 0 -588 150 0 150 0 0 588 c0 323 2 587 5 588 3 1 100 2 215
3 l210 1 0 120 0 120 -577 2 c-318 1 -579 -2 -581 -5z"/>
<path d="M1686 2201 c-1 -3 -2 -323 -2 -711 l1 -705 460 -3 460 -2 0 120 1
120 -311 2 -310 3 -2 555 c0 305 -2 572 -2 592 l-1 38 -145 -2 c-80 0 -147 -4
-149 -7z"/>
</g>
</svg>
