<?xml version="1.0" standalone="no"?>
<!DOCTYPE svg PUBLIC "-//W3C//DTD SVG 20010904//EN"
 "http://www.w3.org/TR/2001/REC-SVG-20010904/DTD/svg10.dtd">
<svg version="1.0" xmlns="http://www.w3.org/2000/svg"
 width="297.000000pt" height="297.000000pt" viewBox="0 0 297.000000 297.000000"
 preserveAspectRatio="xMidYMid meet">
<metadata>
Created by potrace 1.11, written by Peter Selinger 2001-2013
</metadata>
<g transform="translate(0.000000,297.000000) scale(0.100000,-0.100000)"
fill="#000000" stroke="none">
<path d="M945 2754 c-291 -117 -546 -219 -565 -227 -19 -8 -112 -45 -206 -83
l-172 -67 2 -890 1 -891 65 -27 c36 -15 155 -64 265 -108 110 -43 405 -161
655 -261 250 -101 463 -185 473 -188 15 -4 168 52 312 113 17 7 140 56 275
110 135 53 270 107 300 120 30 12 178 72 328 131 l272 109 0 891 0 890 -722
290 c-398 159 -730 292 -738 295 -8 3 -253 -90 -545 -207z m1873 -1267 l2
-803 -667 -267 c-368 -147 -672 -267 -678 -267 -5 0 -310 120 -677 267 l-668
267 0 802 0 801 658 262 c361 144 663 265 671 270 10 5 255 -89 685 -261 l671
-268 3 -803z"/>
<path d="M347 2202 c-3 -6 -1 -203 2 -228 1 -7 66 -10 199 -9 108 1 204 -1
212 -2 13 -4 15 -76 15 -584 0 -320 3 -585 6 -590 3 -6 68 -8 150 -7 l144 3 0
585 c-1 322 2 587 6 590 4 3 102 5 218 5 l211 -1 0 122 0 122 -580 0 c-319 0
-581 -3 -583 -6z"/>
<path d="M1679 2206 c-1 -1 -3 -322 -4 -714 l-1 -712 460 2 461 3 0 118 1 117
-312 0 -312 0 0 563 c0 309 -1 576 -1 594 l-1 32 -145 -1 c-80 -1 -146 -2
-146 -2z"/>
</g>
</svg>
