<?xml version="1.0" encoding="utf-8"?>
<!-- Generator: Adobe Illustrator 22.1.0, SVG Export Plug-In . SVG Version: 6.00 Build 0)  -->
<svg version="1.1" id="Layer_1" xmlns="http://www.w3.org/2000/svg" xmlns:xlink="http://www.w3.org/1999/xlink" x="0px" y="0px"
	 viewBox="0 0 1031 260" style="enable-background:new 0 0 1031 260;" xml:space="preserve">
<style type="text/css">
	.st0{fill:#FFFFFF;}
	.st1{fill:#BCBEC0;}
	.st2{enable-background:new    ;}
	.st3{fill:#4285F4;}
	.st4{fill:#34A853;}
	.st5{fill:#FBBC05;}
	.st6{fill:#EB4335;}
</style>
<title>Sign in with Google</title>
<g id="Layer_2_1_">
	<g id="ICONS">
		<g id="Sign_in_with_Google">
			
				<image style="overflow:visible;opacity:0.2;enable-background:new    ;" width="1031" height="260" xlink:href="CB85CEA4A5F26E20.png" >
			</image>
			<g>
				<path class="st0" d="M44,21.5H987c7.2,0,13,5.8,13,13v171.4c0,7.2-5.8,13-13,13H44c-7.2,0-13-5.8-13-13V34.4
					C31,27.3,36.8,21.5,44,21.5z"/>
			</g>
			<g>
				<path class="st1" d="M987,219.8H44c-7.7,0-14-6.3-14-14V34.4c0-7.7,6.3-13.9,14-13.9H987c7.7,0,14,6.3,14,13.9v171.4
					C1001,213.6,994.7,219.8,987,219.8z M44,22.5c-6.6,0-12,5.4-12,12v171.4c0,6.6,5.4,12,12,12H987c6.6,0,12-5.4,12-12V34.4
					c0-6.6-5.4-12-12-12H44z"/>
			</g>
			<g class="st2">
				<path d="M349.7,120.6c-5-1.4-8.7-3.2-10.9-5.3c-2.3-2.1-3.4-4.7-3.4-7.8c0-3.5,1.4-6.4,4.2-8.7c2.8-2.3,6.4-3.4,10.9-3.4
					c3,0,5.8,0.6,8.1,1.8c2.4,1.2,4.2,2.8,5.5,4.9c1.3,2.1,2,4.3,2,6.8h-5.9c0-2.7-0.9-4.8-2.6-6.3s-4.1-2.3-7.2-2.3
					c-2.9,0-5.1,0.6-6.7,1.9s-2.4,3-2.4,5.3c0,1.8,0.8,3.3,2.3,4.6c1.5,1.2,4.1,2.4,7.8,3.4c3.7,1,6.6,2.2,8.6,3.4
					c2.1,1.2,3.6,2.7,4.6,4.4c1,1.7,1.5,3.6,1.5,5.9c0,3.6-1.4,6.5-4.2,8.6s-6.5,3.2-11.2,3.2c-3,0-5.9-0.6-8.5-1.8
					s-4.7-2.8-6.1-4.8c-1.4-2-2.1-4.3-2.1-6.9h5.9c0,2.7,1,4.8,3,6.3c2,1.6,4.6,2.3,7.9,2.3c3.1,0,5.5-0.6,7.1-1.9
					c1.6-1.3,2.5-3,2.5-5.1s-0.8-3.9-2.3-5S353.7,121.8,349.7,120.6z"/>
				<path d="M372.8,98.7c0-0.9,0.3-1.7,0.8-2.3c0.6-0.6,1.4-0.9,2.5-0.9s1.9,0.3,2.5,0.9c0.6,0.6,0.9,1.4,0.9,2.3
					c0,0.9-0.3,1.7-0.9,2.3c-0.6,0.6-1.4,0.9-2.5,0.9s-1.9-0.3-2.5-0.9C373.1,100.4,372.8,99.6,372.8,98.7z M378.9,140.4h-5.6v-32.9
					h5.6V140.4z"/>
				<path d="M386.6,123.6c0-5.1,1.2-9.2,3.6-12.3c2.4-3,5.5-4.6,9.4-4.6c4,0,7.2,1.4,9.4,4.3l0.3-3.7h5.1v32.2
					c0,4.3-1.3,7.6-3.8,10.1s-5.9,3.7-10.2,3.7c-2.4,0-4.7-0.5-7-1.5c-2.3-1-4-2.4-5.2-4.2l2.9-3.4c2.4,3,5.4,4.5,8.9,4.5
					c2.7,0,4.9-0.8,6.4-2.3c1.5-1.5,2.3-3.7,2.3-6.5v-2.8c-2.3,2.6-5.3,3.9-9.2,3.9c-3.9,0-7-1.6-9.4-4.7
					C387.7,133.2,386.6,129,386.6,123.6z M392.2,124.3c0,3.7,0.8,6.6,2.3,8.8s3.7,3.2,6.4,3.2c3.6,0,6.2-1.6,7.8-4.8v-15
					c-1.7-3.1-4.3-4.7-7.8-4.7c-2.7,0-4.9,1.1-6.4,3.2C393,116.9,392.2,120.1,392.2,124.3z"/>
				<path d="M428.2,107.4l0.2,4.1c2.5-3.2,5.8-4.8,9.9-4.8c7,0,10.5,3.9,10.5,11.8v21.8h-5.6v-21.8c0-2.4-0.6-4.1-1.6-5.3
					c-1.1-1.1-2.7-1.7-5-1.7c-1.8,0-3.4,0.5-4.8,1.5c-1.4,1-2.5,2.3-3.2,3.8v23.5h-5.6v-32.9H428.2z"/>
				<path d="M472.8,98.7c0-0.9,0.3-1.7,0.8-2.3c0.6-0.6,1.4-0.9,2.5-0.9s1.9,0.3,2.5,0.9c0.6,0.6,0.9,1.4,0.9,2.3
					c0,0.9-0.3,1.7-0.9,2.3c-0.6,0.6-1.4,0.9-2.5,0.9s-1.9-0.3-2.5-0.9C473,100.4,472.8,99.6,472.8,98.7z M478.8,140.4h-5.6v-32.9
					h5.6V140.4z"/>
				<path d="M493.2,107.4l0.2,4.1c2.5-3.2,5.8-4.8,9.9-4.8c7,0,10.5,3.9,10.5,11.8v21.8h-5.6v-21.8c0-2.4-0.6-4.1-1.6-5.3
					c-1.1-1.1-2.7-1.7-5-1.7c-1.8,0-3.4,0.5-4.8,1.5c-1.4,1-2.5,2.3-3.2,3.8v23.5h-5.6v-32.9H493.2z"/>
				<path d="M566.9,132.6l6.3-25.2h5.6l-9.6,32.9h-4.6l-8-25l-7.8,25h-4.6l-9.6-32.9h5.6l6.5,24.7l7.7-24.7h4.5L566.9,132.6z"/>
				<path d="M584.6,98.7c0-0.9,0.3-1.7,0.8-2.3c0.6-0.6,1.4-0.9,2.5-0.9c1.1,0,1.9,0.3,2.5,0.9c0.6,0.6,0.9,1.4,0.9,2.3
					c0,0.9-0.3,1.7-0.9,2.3c-0.6,0.6-1.4,0.9-2.5,0.9c-1.1,0-1.9-0.3-2.5-0.9C584.9,100.4,584.6,99.6,584.6,98.7z M590.7,140.4h-5.6
					v-32.9h5.6V140.4z"/>
				<path d="M607.3,99.4v8h6.2v4.4h-6.2v20.5c0,1.3,0.3,2.3,0.8,3s1.5,1,2.8,1c0.6,0,1.5-0.1,2.7-0.4v4.5c-1.5,0.4-2.9,0.6-4.3,0.6
					c-2.5,0-4.4-0.8-5.7-2.3c-1.3-1.5-1.9-3.7-1.9-6.5v-20.4h-6v-4.4h6v-8H607.3z"/>
				<path d="M625.7,111.4c2.5-3.1,5.7-4.6,9.7-4.6c7,0,10.5,3.9,10.5,11.8v21.8h-5.6v-21.8c0-2.4-0.6-4.1-1.6-5.3
					c-1.1-1.1-2.7-1.7-5-1.7c-1.8,0-3.4,0.5-4.8,1.5c-1.4,1-2.5,2.3-3.2,3.8v23.5h-5.6V93.6h5.6V111.4z"/>
			</g>
			<g class="st2">
				<path d="M704.6,134.8c-1.6,2-4,3.5-7,4.6c-3,1.1-6.3,1.6-10,1.6c-3.8,0-7.2-0.8-10.1-2.5c-2.9-1.7-5.1-4.1-6.7-7.3
					c-1.6-3.2-2.4-6.9-2.4-11.2v-3c0-4.4,0.7-8.3,2.2-11.5c1.5-3.2,3.6-5.7,6.5-7.4c2.8-1.7,6.1-2.6,9.9-2.6c5.3,0,9.4,1.3,12.3,3.8
					c3,2.5,4.7,6.2,5.3,10.9h-8.9c-0.4-2.5-1.3-4.4-2.7-5.6c-1.4-1.2-3.3-1.8-5.7-1.8c-3.1,0-5.5,1.2-7.1,3.5
					c-1.6,2.3-2.4,5.8-2.5,10.4v2.8c0,4.6,0.9,8.2,2.6,10.5c1.8,2.4,4.4,3.6,7.8,3.6c3.4,0,5.9-0.7,7.3-2.2v-7.6h-8.3v-6.7h17.4
					V134.8z"/>
				<path d="M710.1,123.6c0-3.3,0.6-6.2,1.9-8.7s3.1-4.5,5.4-5.9c2.4-1.4,5.1-2.1,8.2-2.1c4.4,0,8.1,1.4,10.9,4.1s4.4,6.4,4.7,11.1
					l0.1,2.3c0,5.1-1.4,9.1-4.2,12.2c-2.8,3.1-6.6,4.6-11.4,4.6c-4.8,0-8.5-1.5-11.4-4.6c-2.8-3-4.2-7.2-4.2-12.4V123.6z
					 M718.9,124.2c0,3.1,0.6,5.5,1.8,7.2c1.2,1.7,2.9,2.5,5.1,2.5c2.1,0,3.8-0.8,5-2.5c1.2-1.6,1.8-4.3,1.8-7.9
					c0-3.1-0.6-5.4-1.8-7.1c-1.2-1.7-2.9-2.5-5.1-2.5c-2.2,0-3.8,0.8-5,2.5C719.5,118.1,718.9,120.7,718.9,124.2z"/>
				<path d="M745.3,123.6c0-3.3,0.6-6.2,1.9-8.7c1.3-2.6,3.1-4.5,5.4-5.9c2.4-1.4,5.1-2.1,8.2-2.1c4.4,0,8.1,1.4,10.9,4.1
					s4.4,6.4,4.7,11.1l0.1,2.3c0,5.1-1.4,9.1-4.2,12.2c-2.8,3.1-6.6,4.6-11.4,4.6s-8.5-1.5-11.4-4.6c-2.8-3-4.2-7.2-4.2-12.4V123.6z
					 M754.1,124.2c0,3.1,0.6,5.5,1.8,7.2c1.2,1.7,2.9,2.5,5.1,2.5c2.1,0,3.8-0.8,5-2.5c1.2-1.6,1.8-4.3,1.8-7.9
					c0-3.1-0.6-5.4-1.8-7.1c-1.2-1.7-2.9-2.5-5.1-2.5c-2.2,0-3.8,0.8-5,2.5C754.7,118.1,754.1,120.7,754.1,124.2z"/>
				<path d="M780.7,123.7c0-5.1,1.2-9.1,3.6-12.2c2.4-3.1,5.6-4.6,9.7-4.6c3.6,0,6.4,1.2,8.4,3.7l0.4-3.1h8v31.9
					c0,2.9-0.7,5.4-2,7.5c-1.3,2.1-3.2,3.8-5.5,4.9c-2.4,1.1-5.2,1.7-8.3,1.7c-2.4,0-4.8-0.5-7.1-1.4c-2.3-1-4-2.2-5.2-3.7l3.9-5.4
					c2.2,2.5,4.9,3.7,8,3.7c2.3,0,4.2-0.6,5.5-1.9c1.3-1.2,1.9-3,1.9-5.3v-1.8c-2,2.3-4.7,3.4-8,3.4c-4,0-7.2-1.5-9.6-4.6
					c-2.4-3.1-3.7-7.2-3.7-12.3V123.7z M789.5,124.3c0,3,0.6,5.3,1.8,7c1.2,1.7,2.8,2.5,4.9,2.5c2.7,0,4.6-1,5.8-3V117
					c-1.2-2-3.1-3-5.7-3c-2.1,0-3.8,0.9-5,2.6C790.1,118.3,789.5,120.9,789.5,124.3z"/>
				<path d="M826.9,140.4H818V93.6h8.8V140.4z"/>
				<path d="M849.3,141c-4.8,0-8.8-1.5-11.8-4.4c-3-3-4.6-6.9-4.6-11.8v-0.9c0-3.3,0.6-6.3,1.9-8.9c1.3-2.6,3.1-4.6,5.4-6
					s5-2.1,8-2.1c4.5,0,8.1,1.4,10.6,4.3c2.6,2.8,3.9,6.9,3.9,12.1v3.6h-21c0.3,2.2,1.1,3.9,2.6,5.2c1.4,1.3,3.2,1.9,5.4,1.9
					c3.4,0,6-1.2,7.9-3.7l4.3,4.8c-1.3,1.9-3.1,3.3-5.4,4.4C854.5,140.5,852,141,849.3,141z M848.3,113.9c-1.7,0-3.2,0.6-4.2,1.8
					s-1.8,2.9-2.1,5.1h12.2v-0.7c0-2-0.6-3.5-1.6-4.5C851.6,114.4,850.1,113.9,848.3,113.9z"/>
			</g>
			<g>
				<rect x="277.2" y="63.9" class="st1" width="2" height="110.7"/>
			</g>
			<g>
				<path class="st3" d="M225.9,121.7c0.1-4.9-0.4-9.7-1.5-14.5h-66.5v26.3h39c-0.8,6.5-5,16.4-14.5,23l-0.1,0.9l21,16.3l1.5,0.1
					C218.1,161.5,225.8,143.3,225.9,121.7"/>
			</g>
			<g>
				<path class="st4" d="M157.9,191c19.1,0,35.2-6.3,46.9-17.1l-22.4-17.3c-6,4.2-14,7.1-24.6,7.1c-18.4-0.1-34.6-12-40.3-29.4
					l-0.8,0.1l-21.9,16.9l-0.3,0.8C106.6,175.9,131.1,191,157.9,191"/>
			</g>
			<g>
				<path class="st5" d="M117.6,134.2c-1.5-4.5-2.3-9.2-2.4-14c0-4.8,0.8-9.5,2.3-14v-0.9L95.3,88l-0.7,0.3
					c-10.1,20-10.1,43.6,0,63.6L117.6,134.2"/>
			</g>
			<g>
				<path class="st6" d="M157.9,76.7c10.1-0.2,20,3.6,27.4,10.5l20-19.5c-12.8-12-29.8-18.6-47.4-18.4c-26.8,0-51.3,15.1-63.3,39
					l22.9,17.8C123.3,88.6,139.5,76.8,157.9,76.7"/>
			</g>
		</g>
	</g>
</g>
</svg>
