<?xml version="1.0" encoding="utf-8"?>
<!-- Generator: Adobe Illustrator 22.1.0, SVG Export Plug-In . SVG Version: 6.00 Build 0)  -->
<svg version="1.1" id="Layer_1" xmlns="http://www.w3.org/2000/svg" xmlns:xlink="http://www.w3.org/1999/xlink" x="0px" y="0px"
	 viewBox="0 0 1031 261" style="enable-background:new 0 0 1031 261;" xml:space="preserve">
<style type="text/css">
	.st0{fill:#FFFFFF;}
	.st1{fill:#BCBEC0;}
	.st2{enable-background:new    ;}
	.st3{fill:#0077B7;}
</style>
<title>Sign in with Linkedin</title>
<g id="Layer_2_1_">
	<g id="ICONS">
		<g id="Sign_in_with_Linkedin">
			
				<image style="overflow:visible;opacity:0.2;enable-background:new    ;" width="1031" height="261" xlink:href="C438F8F08043E0C9.png" >
			</image>
			<g>
				<path class="st0" d="M44,21.8H987c7.2,0,13,5.8,13,13v171.4c0,7.2-5.8,13-13,13H44c-7.2,0-13-5.8-13-13V34.7
					C31,27.6,36.8,21.8,44,21.8z"/>
			</g>
			<g>
				<path class="st1" d="M987,220.1H44c-7.7,0-14-6.3-14-14V34.7c0-7.7,6.3-13.9,14-13.9H987c7.7,0,14,6.3,14,13.9v171.4
					C1001,213.9,994.7,220.1,987,220.1z M44,22.8c-6.6,0-12,5.4-12,12v171.4c0,6.6,5.4,12,12,12H987c6.6,0,12-5.4,12-12V34.7
					c0-6.6-5.4-12-12-12H44z"/>
			</g>
			<g class="st2">
				<path d="M349.7,120.9c-5-1.4-8.7-3.2-10.9-5.3c-2.3-2.1-3.4-4.7-3.4-7.8c0-3.5,1.4-6.4,4.2-8.7c2.8-2.3,6.4-3.4,10.9-3.4
					c3,0,5.8,0.6,8.1,1.8c2.4,1.2,4.2,2.8,5.5,4.9c1.3,2.1,2,4.3,2,6.8h-5.9c0-2.7-0.9-4.8-2.6-6.3s-4.1-2.3-7.2-2.3
					c-2.9,0-5.1,0.6-6.7,1.9s-2.4,3-2.4,5.3c0,1.8,0.8,3.3,2.3,4.6c1.5,1.2,4.1,2.4,7.8,3.4c3.7,1,6.6,2.2,8.6,3.4
					c2.1,1.2,3.6,2.7,4.6,4.4c1,1.7,1.5,3.6,1.5,5.9c0,3.6-1.4,6.5-4.2,8.6s-6.5,3.2-11.2,3.2c-3,0-5.9-0.6-8.5-1.8
					s-4.7-2.8-6.1-4.8c-1.4-2-2.1-4.3-2.1-6.9h5.9c0,2.7,1,4.8,3,6.3c2,1.6,4.6,2.3,7.9,2.3c3.1,0,5.5-0.6,7.1-1.9
					c1.6-1.3,2.5-3,2.5-5.1c0-2.2-0.8-3.9-2.3-5S353.7,122.1,349.7,120.9z"/>
				<path d="M372.8,99c0-0.9,0.3-1.7,0.8-2.3c0.6-0.6,1.4-0.9,2.5-0.9s1.9,0.3,2.5,0.9c0.6,0.6,0.9,1.4,0.9,2.3
					c0,0.9-0.3,1.7-0.9,2.3c-0.6,0.6-1.4,0.9-2.5,0.9s-1.9-0.3-2.5-0.9C373.1,100.7,372.8,99.9,372.8,99z M378.9,140.7h-5.6v-32.9
					h5.6V140.7z"/>
				<path d="M386.6,123.9c0-5.1,1.2-9.2,3.6-12.3c2.4-3,5.5-4.6,9.4-4.6c4,0,7.2,1.4,9.4,4.3l0.3-3.7h5.1v32.2
					c0,4.3-1.3,7.6-3.8,10.1s-5.9,3.7-10.2,3.7c-2.4,0-4.7-0.5-7-1.5c-2.3-1-4-2.4-5.2-4.2l2.9-3.4c2.4,3,5.4,4.5,8.9,4.5
					c2.7,0,4.9-0.8,6.4-2.3c1.5-1.5,2.3-3.7,2.3-6.5v-2.8c-2.3,2.6-5.3,3.9-9.2,3.9c-3.9,0-7-1.6-9.4-4.7
					C387.7,133.5,386.6,129.3,386.6,123.9z M392.2,124.6c0,3.7,0.8,6.6,2.3,8.8s3.7,3.2,6.4,3.2c3.6,0,6.2-1.6,7.8-4.8v-15
					c-1.7-3.1-4.3-4.7-7.8-4.7c-2.7,0-4.9,1.1-6.4,3.2C393,117.2,392.2,120.4,392.2,124.6z"/>
				<path d="M428.2,107.7l0.2,4.1c2.5-3.2,5.8-4.8,9.9-4.8c7,0,10.5,3.9,10.5,11.8v21.8h-5.6v-21.8c0-2.4-0.6-4.1-1.6-5.3
					c-1.1-1.1-2.7-1.7-5-1.7c-1.8,0-3.4,0.5-4.8,1.5c-1.4,1-2.5,2.3-3.2,3.8v23.5h-5.6v-32.9H428.2z"/>
				<path d="M472.8,99c0-0.9,0.3-1.7,0.8-2.3c0.6-0.6,1.4-0.9,2.5-0.9s1.9,0.3,2.5,0.9c0.6,0.6,0.9,1.4,0.9,2.3
					c0,0.9-0.3,1.7-0.9,2.3c-0.6,0.6-1.4,0.9-2.5,0.9s-1.9-0.3-2.5-0.9C473,100.7,472.8,99.9,472.8,99z M478.8,140.7h-5.6v-32.9h5.6
					V140.7z"/>
				<path d="M493.2,107.7l0.2,4.1c2.5-3.2,5.8-4.8,9.9-4.8c7,0,10.5,3.9,10.5,11.8v21.8h-5.6v-21.8c0-2.4-0.6-4.1-1.6-5.3
					c-1.1-1.1-2.7-1.7-5-1.7c-1.8,0-3.4,0.5-4.8,1.5c-1.4,1-2.5,2.3-3.2,3.8v23.5h-5.6v-32.9H493.2z"/>
				<path d="M566.9,132.9l6.3-25.2h5.6l-9.6,32.9h-4.6l-8-25l-7.8,25h-4.6l-9.6-32.9h5.6l6.5,24.7l7.7-24.7h4.5L566.9,132.9z"/>
				<path d="M584.6,99c0-0.9,0.3-1.7,0.8-2.3c0.6-0.6,1.4-0.9,2.5-0.9c1.1,0,1.9,0.3,2.5,0.9c0.6,0.6,0.9,1.4,0.9,2.3
					c0,0.9-0.3,1.7-0.9,2.3c-0.6,0.6-1.4,0.9-2.5,0.9c-1.1,0-1.9-0.3-2.5-0.9C584.9,100.7,584.6,99.9,584.6,99z M590.7,140.7h-5.6
					v-32.9h5.6V140.7z"/>
				<path d="M607.3,99.8v8h6.2v4.4h-6.2v20.5c0,1.3,0.3,2.3,0.8,3s1.5,1,2.8,1c0.6,0,1.5-0.1,2.7-0.4v4.5c-1.5,0.4-2.9,0.6-4.3,0.6
					c-2.5,0-4.4-0.8-5.7-2.3c-1.3-1.5-1.9-3.7-1.9-6.5v-20.4h-6v-4.4h6v-8H607.3z"/>
				<path d="M625.7,111.7c2.5-3.1,5.7-4.6,9.7-4.6c7,0,10.5,3.9,10.5,11.8v21.8h-5.6v-21.8c0-2.4-0.6-4.1-1.6-5.3
					c-1.1-1.1-2.7-1.7-5-1.7c-1.8,0-3.4,0.5-4.8,1.5c-1.4,1-2.5,2.3-3.2,3.8v23.5h-5.6V93.9h5.6V111.7z"/>
			</g>
			<g class="st2">
				<path d="M678.7,133.3h19.4v7.3h-28.5V96.3h9.1V133.3z"/>
				<path d="M702.7,99.2c0-1.3,0.4-2.4,1.3-3.3c0.9-0.9,2.1-1.3,3.6-1.3c1.5,0,2.7,0.4,3.6,1.3c0.9,0.9,1.3,1.9,1.3,3.3
					c0,1.3-0.5,2.4-1.4,3.3s-2.1,1.3-3.6,1.3c-1.5,0-2.7-0.4-3.6-1.3S702.7,100.5,702.7,99.2z M712,140.7h-8.8v-32.9h8.8V140.7z"/>
				<path d="M727.4,107.7l0.3,3.8c2.4-2.9,5.5-4.4,9.5-4.4c3.5,0,6.1,1,7.8,3.1c1.7,2.1,2.6,5.1,2.6,9.2v21.3h-8.8v-21.1
					c0-1.9-0.4-3.2-1.2-4.1c-0.8-0.8-2.2-1.3-4-1.3c-2.5,0-4.3,1.1-5.6,3.2v23.2h-8.8v-32.9H727.4z"/>
			</g>
			<g class="st2">
				<path d="M766.5,127.5l-3.2,3.2v10h-8.8V93.9h8.8v25.9l1.7-2.2l8.4-9.9h10.6l-11.9,13.7l12.9,19.2H775L766.5,127.5z"/>
			</g>
			<g class="st2">
				<path d="M802.4,141.3c-4.8,0-8.8-1.5-11.8-4.4c-3-3-4.6-6.9-4.6-11.8v-0.9c0-3.3,0.6-6.3,1.9-8.9c1.3-2.6,3.1-4.6,5.4-6
					s5-2.1,8-2.1c4.5,0,8.1,1.4,10.6,4.3s3.9,6.9,3.9,12.1v3.6h-21c0.3,2.2,1.1,3.9,2.6,5.2c1.4,1.3,3.2,1.9,5.4,1.9
					c3.4,0,6-1.2,7.9-3.7l4.3,4.8c-1.3,1.9-3.1,3.3-5.4,4.4C807.7,140.8,805.2,141.3,802.4,141.3z M801.4,114.2
					c-1.7,0-3.2,0.6-4.2,1.8s-1.8,2.9-2.1,5.1h12.2v-0.7c0-2-0.6-3.5-1.6-4.5C804.7,114.8,803.3,114.2,801.4,114.2z"/>
				<path d="M819.6,124c0-5.1,1.2-9.2,3.5-12.3c2.3-3,5.5-4.6,9.5-4.6c3.2,0,5.9,1.2,7.9,3.6V93.9h8.8v46.8h-7.9l-0.4-3.5
					c-2.2,2.7-5,4.1-8.5,4.1c-3.9,0-7-1.5-9.3-4.6C820.8,133.7,819.6,129.4,819.6,124z M828.4,124.6c0,3.1,0.5,5.5,1.6,7.1
					c1.1,1.6,2.6,2.5,4.7,2.5c2.7,0,4.6-1.1,5.8-3.4v-13c-1.1-2.3-3-3.4-5.7-3.4C830.5,114.3,828.4,117.7,828.4,124.6z"/>
				<path d="M856.1,99.2c0-1.3,0.4-2.4,1.3-3.3c0.9-0.9,2.1-1.3,3.6-1.3c1.5,0,2.7,0.4,3.6,1.3c0.9,0.9,1.3,1.9,1.3,3.3
					c0,1.3-0.5,2.4-1.4,3.3s-2.1,1.3-3.6,1.3c-1.5,0-2.7-0.4-3.6-1.3S856.1,100.5,856.1,99.2z M865.4,140.7h-8.8v-32.9h8.8V140.7z"
					/>
				<path d="M880.8,107.7l0.3,3.8c2.4-2.9,5.5-4.4,9.5-4.4c3.5,0,6.1,1,7.8,3.1c1.7,2.1,2.6,5.1,2.6,9.2v21.3h-8.8v-21.1
					c0-1.9-0.4-3.2-1.2-4.1c-0.8-0.8-2.2-1.3-4-1.3c-2.5,0-4.3,1.1-5.6,3.2v23.2h-8.8v-32.9H880.8z"/>
			</g>
			<g>
				<rect x="276.3" y="65.1" class="st1" width="2" height="110.7"/>
			</g>
			<g>
				<path class="st3" d="M208.4,55H101.1c-6.5,0-11.8,5.3-11.8,11.8v107.3c0,6.6,5.3,11.9,11.8,11.9c0,0,0,0,0,0h107.3
					c6.5,0,11.8-5.3,11.9-11.9V66.8C220.2,60.3,214.9,55,208.4,55z M129.8,168.1c0,1.9-1.5,3.4-3.4,3.4c0,0,0,0,0,0h-14.7
					c-1.9,0-3.4-1.5-3.4-3.4c0,0,0,0,0,0v-61.5c0-1.9,1.5-3.4,3.4-3.4h14.7c1.9,0,3.5,1.5,3.5,3.4l0,0L129.8,168.1z M119,97.3
					c-7.7,0-13.9-6.2-13.9-13.9s6.2-13.9,13.9-13.9s13.9,6.2,13.9,13.9C132.9,91,126.7,97.3,119,97.3z M206.5,168.3
					c0,1.8-1.4,3.2-3.2,3.2h-15.8c-1.8,0-3.2-1.4-3.2-3.2v-28.9c0-4.3,1.3-18.9-11.2-18.9c-9.7,0-11.7,10-12.1,14.4v33.3
					c0,1.8-1.4,3.2-3.2,3.2h-15.2c-1.8,0-3.2-1.4-3.2-3.2v-62.1c0-1.8,1.4-3.2,3.2-3.2h15.2c1.8,0,3.2,1.4,3.2,3.2v5.4
					c3.6-5.4,8.9-9.6,20.3-9.6c25.2,0,25.1,23.6,25.1,36.5L206.5,168.3L206.5,168.3z"/>
			</g>
		</g>
	</g>
</g>
</svg>
